<mxfile host="app.diagrams.net" modified="2023-04-05T07:14:24.850Z" agent="Mozilla/5.0 (Windows NT 10.0; Win64; x64) AppleWebKit/537.36 (KHTML, like Gecko) Chrome/111.0.0.0 Safari/537.36 Edg/111.0.1661.62" version="21.1.4" etag="GNcB612I11jRkoy0PWrf" type="github">
  <diagram name="第 1 页" id="RVpPA9HzxAZdSO3csaqd">
    <mxGraphModel>
      <root>
        <mxCell id="0" />
        <mxCell id="1" parent="0" />
        <mxCell id="2" value="游客" style="whiteSpace=wrap;strokeWidth=2;" vertex="1" parent="1">
          <mxGeometry x="412" width="49" height="33" as="geometry" />
        </mxCell>
        <mxCell id="3" value="查看救助" style="rounded=1;absoluteArcSize=1;arcSize=14;whiteSpace=wrap;strokeWidth=2;" vertex="1" parent="1">
          <mxGeometry y="83" width="79" height="33" as="geometry" />
        </mxCell>
        <mxCell id="4" value="查看领养" style="rounded=1;absoluteArcSize=1;arcSize=14;whiteSpace=wrap;strokeWidth=2;" vertex="1" parent="1">
          <mxGeometry x="132" y="83" width="79" height="33" as="geometry" />
        </mxCell>
        <mxCell id="5" value="查看送养" style="rounded=1;absoluteArcSize=1;arcSize=14;whiteSpace=wrap;strokeWidth=2;" vertex="1" parent="1">
          <mxGeometry x="261" y="83" width="79" height="33" as="geometry" />
        </mxCell>
        <mxCell id="6" value="查看找丢" style="rounded=1;absoluteArcSize=1;arcSize=14;whiteSpace=wrap;strokeWidth=2;" vertex="1" parent="1">
          <mxGeometry x="390" y="83" width="79" height="33" as="geometry" />
        </mxCell>
        <mxCell id="7" value="查看帖子" style="rounded=1;absoluteArcSize=1;arcSize=14;whiteSpace=wrap;strokeWidth=2;" vertex="1" parent="1">
          <mxGeometry x="519" y="83" width="79" height="33" as="geometry" />
        </mxCell>
        <mxCell id="8" value="查看宠物秀" style="rounded=1;absoluteArcSize=1;arcSize=14;whiteSpace=wrap;strokeWidth=2;" vertex="1" parent="1">
          <mxGeometry x="648" y="83" width="95" height="33" as="geometry" />
        </mxCell>
        <mxCell id="9" value="查看目标用户主页信息" style="rounded=1;absoluteArcSize=1;arcSize=14;whiteSpace=wrap;strokeWidth=2;" vertex="1" parent="1">
          <mxGeometry x="793" y="83" width="176" height="33" as="geometry" />
        </mxCell>
        <mxCell id="10" value="搜索" style="rounded=1;absoluteArcSize=1;arcSize=14;whiteSpace=wrap;strokeWidth=2;" vertex="1" parent="1">
          <mxGeometry x="1018" y="83" width="48" height="33" as="geometry" />
        </mxCell>
        <mxCell id="11" value="登录用户" style="whiteSpace=wrap;strokeWidth=2;" vertex="1" parent="1">
          <mxGeometry x="1203" width="80" height="33" as="geometry" />
        </mxCell>
        <mxCell id="12" value="发布宠物信息" style="rounded=1;absoluteArcSize=1;arcSize=14;whiteSpace=wrap;strokeWidth=2;" vertex="1" parent="1">
          <mxGeometry x="1116" y="83" width="113" height="33" as="geometry" />
        </mxCell>
        <mxCell id="13" value="发布帖子" style="rounded=1;absoluteArcSize=1;arcSize=14;whiteSpace=wrap;strokeWidth=2;" vertex="1" parent="1">
          <mxGeometry x="1279" y="83" width="80" height="33" as="geometry" />
        </mxCell>
        <mxCell id="14" value="发布宠物秀" style="rounded=1;absoluteArcSize=1;arcSize=14;whiteSpace=wrap;strokeWidth=2;" vertex="1" parent="1">
          <mxGeometry x="1409" y="83" width="96" height="33" as="geometry" />
        </mxCell>
        <mxCell id="15" value="点赞" style="rounded=1;absoluteArcSize=1;arcSize=14;whiteSpace=wrap;strokeWidth=2;" vertex="1" parent="1">
          <mxGeometry x="1554" y="83" width="48" height="33" as="geometry" />
        </mxCell>
        <mxCell id="16" value="收藏" style="rounded=1;absoluteArcSize=1;arcSize=14;whiteSpace=wrap;strokeWidth=2;" vertex="1" parent="1">
          <mxGeometry x="1652" y="83" width="48" height="33" as="geometry" />
        </mxCell>
        <mxCell id="17" value="举报" style="rounded=1;absoluteArcSize=1;arcSize=14;whiteSpace=wrap;strokeWidth=2;" vertex="1" parent="1">
          <mxGeometry x="1750" y="83" width="49" height="33" as="geometry" />
        </mxCell>
        <mxCell id="18" value="评论回复" style="rounded=1;absoluteArcSize=1;arcSize=14;whiteSpace=wrap;strokeWidth=2;" vertex="1" parent="1">
          <mxGeometry x="1849" y="83" width="80" height="33" as="geometry" />
        </mxCell>
        <mxCell id="19" value="关注/取关其他用户" style="rounded=1;absoluteArcSize=1;arcSize=14;whiteSpace=wrap;strokeWidth=2;" vertex="1" parent="1">
          <mxGeometry x="1978" y="83" width="151" height="33" as="geometry" />
        </mxCell>
        <mxCell id="20" value="查看/修改个人主页信息" style="rounded=1;absoluteArcSize=1;arcSize=14;whiteSpace=wrap;strokeWidth=2;" vertex="1" parent="1">
          <mxGeometry x="2180" y="83" width="184" height="33" as="geometry" />
        </mxCell>
        <mxCell id="21" value="管理发布的信息" style="rounded=1;absoluteArcSize=1;arcSize=14;whiteSpace=wrap;strokeWidth=2;" vertex="1" parent="1">
          <mxGeometry x="2414" y="83" width="128" height="33" as="geometry" />
        </mxCell>
        <mxCell id="22" value="" style="curved=1;startArrow=none;endArrow=block;exitX=0.004081609297771843;exitY=0.581506245013599;entryX=0.449306376294212;entryY=0.012121258359966856;" edge="1" parent="1" source="2" target="3">
          <mxGeometry relative="1" as="geometry">
            <Array as="points">
              <mxPoint x="30" y="58" />
            </Array>
          </mxGeometry>
        </mxCell>
        <mxCell id="23" value="" style="curved=1;startArrow=none;endArrow=block;exitX=0.004081609297771843;exitY=0.6012741660614768;entryX=0.20547612763293857;entryY=0.012121258359966856;" edge="1" parent="1" source="2" target="4">
          <mxGeometry relative="1" as="geometry">
            <Array as="points">
              <mxPoint x="114" y="58" />
            </Array>
          </mxGeometry>
        </mxCell>
        <mxCell id="24" value="" style="curved=1;startArrow=none;endArrow=block;exitX=0.004081609297771843;exitY=0.6647498573158056;entryX=0.20547612763293857;entryY=0.012121258359966856;" edge="1" parent="1" source="2" target="5">
          <mxGeometry relative="1" as="geometry">
            <Array as="points">
              <mxPoint x="243" y="58" />
            </Array>
          </mxGeometry>
        </mxCell>
        <mxCell id="25" value="" style="curved=1;startArrow=none;endArrow=block;exitX=0.004081609297771843;exitY=0.98212831358745;entryX=0.20547612763293857;entryY=0.012121258359966856;" edge="1" parent="1" source="2" target="6">
          <mxGeometry relative="1" as="geometry">
            <Array as="points">
              <mxPoint x="372" y="58" />
            </Array>
          </mxGeometry>
        </mxCell>
        <mxCell id="26" value="" style="curved=1;startArrow=none;endArrow=block;exitX=0.9959183907022282;exitY=0.98212831358745;entryX=0.20547612763293785;entryY=0.012121258359966856;" edge="1" parent="1" source="2" target="7">
          <mxGeometry relative="1" as="geometry">
            <Array as="points">
              <mxPoint x="501" y="58" />
            </Array>
          </mxGeometry>
        </mxCell>
        <mxCell id="27" value="" style="curved=1;startArrow=none;endArrow=block;exitX=0.9959183907022282;exitY=0.6615358982649534;entryX=0.2382178481463083;entryY=0.012121258359966856;" edge="1" parent="1" source="2" target="8">
          <mxGeometry relative="1" as="geometry">
            <Array as="points">
              <mxPoint x="634" y="58" />
            </Array>
          </mxGeometry>
        </mxCell>
        <mxCell id="28" value="" style="curved=1;startArrow=none;endArrow=block;exitX=0.9959183907022282;exitY=0.5916652167990815;entryX=0.3030630103077495;entryY=0.012121258359966856;" edge="1" parent="1" source="2" target="9">
          <mxGeometry relative="1" as="geometry">
            <Array as="points">
              <mxPoint x="795" y="58" />
            </Array>
          </mxGeometry>
        </mxCell>
        <mxCell id="29" value="" style="curved=1;startArrow=none;endArrow=block;exitX=0.9959183907022282;exitY=0.5637468315531773;entryX=0.008333424727121988;entryY=0.10728517491818289;" edge="1" parent="1" source="2" target="10">
          <mxGeometry relative="1" as="geometry">
            <Array as="points">
              <mxPoint x="969" y="58" />
            </Array>
          </mxGeometry>
        </mxCell>
        <mxCell id="30" value="" style="curved=1;startArrow=none;endArrow=block;exitX=0.001250004768371582;exitY=0.549941476591658;entryX=0.7762802491965447;entryY=0.012121258359966856;" edge="1" parent="1" source="11" target="3">
          <mxGeometry relative="1" as="geometry">
            <Array as="points">
              <mxPoint x="94" y="58" />
            </Array>
          </mxGeometry>
        </mxCell>
        <mxCell id="31" value="" style="curved=1;startArrow=none;endArrow=block;exitX=0.001250004768371582;exitY=0.5554911131656982;entryX=0.758036626026028;entryY=0.012121258359966856;" edge="1" parent="1" source="11" target="4">
          <mxGeometry relative="1" as="geometry">
            <Array as="points">
              <mxPoint x="223" y="58" />
            </Array>
          </mxGeometry>
        </mxCell>
        <mxCell id="32" value="" style="curved=1;startArrow=none;endArrow=block;exitX=0.001250004768371582;exitY=0.562647715208916;entryX=0.758036626026028;entryY=0.012121258359966856;" edge="1" parent="1" source="11" target="5">
          <mxGeometry relative="1" as="geometry">
            <Array as="points">
              <mxPoint x="352" y="58" />
            </Array>
          </mxGeometry>
        </mxCell>
        <mxCell id="33" value="" style="curved=1;startArrow=none;endArrow=block;exitX=0.001250004768371582;exitY=0.5722274187252683;entryX=0.758036626026028;entryY=0.012121258359966856;" edge="1" parent="1" source="11" target="6">
          <mxGeometry relative="1" as="geometry">
            <Array as="points">
              <mxPoint x="481" y="58" />
            </Array>
          </mxGeometry>
        </mxCell>
        <mxCell id="34" value="" style="curved=1;startArrow=none;endArrow=block;exitX=0.001250004768371582;exitY=0.5862181706852645;entryX=0.7783140755083425;entryY=0.012121258359966856;" edge="1" parent="1" source="11" target="7">
          <mxGeometry relative="1" as="geometry">
            <Array as="points">
              <mxPoint x="614" y="58" />
            </Array>
          </mxGeometry>
        </mxCell>
        <mxCell id="35" value="" style="curved=1;startArrow=none;endArrow=block;exitX=0.001250004768371582;exitY=0.6138397947130461;entryX=0.8334570447449826;entryY=0.012121258359966856;" edge="1" parent="1" source="11" target="8">
          <mxGeometry relative="1" as="geometry">
            <Array as="points">
              <mxPoint x="775" y="58" />
            </Array>
          </mxGeometry>
        </mxCell>
        <mxCell id="36" value="" style="curved=1;startArrow=none;endArrow=block;exitX=0.001250004768371582;exitY=0.6774375625327969;entryX=0.6525725062409843;entryY=0.012121258359966856;" edge="1" parent="1" source="11" target="9">
          <mxGeometry relative="1" as="geometry">
            <Array as="points">
              <mxPoint x="949" y="58" />
            </Array>
          </mxGeometry>
        </mxCell>
        <mxCell id="37" value="" style="curved=1;startArrow=none;endArrow=block;exitX=0.001250004768371582;exitY=0.8462704390625748;entryX=0.9442746598656981;entryY=0.012121258359966856;" edge="1" parent="1" source="11" target="10">
          <mxGeometry relative="1" as="geometry">
            <Array as="points">
              <mxPoint x="1095" y="58" />
            </Array>
          </mxGeometry>
        </mxCell>
        <mxCell id="38" value="" style="curved=1;startArrow=none;endArrow=block;exitX=0.1470773570792147;exitY=1.0121212583599668;entryX=0.5000000253187872;entryY=0.012121258359966856;" edge="1" parent="1" source="11" target="12">
          <mxGeometry relative="1" as="geometry">
            <Array as="points">
              <mxPoint x="1173" y="58" />
            </Array>
          </mxGeometry>
        </mxCell>
        <mxCell id="39" value="" style="curved=1;startArrow=none;endArrow=block;exitX=0.8789538797448728;exitY=1.0121212583599668;entryX=0.49625004529953004;entryY=0.012121258359966856;" edge="1" parent="1" source="11" target="13">
          <mxGeometry relative="1" as="geometry">
            <Array as="points">
              <mxPoint x="1319" y="58" />
            </Array>
          </mxGeometry>
        </mxCell>
        <mxCell id="40" value="" style="curved=1;startArrow=none;endArrow=block;exitX=0.9987500429153442;exitY=0.7422156298059103;entryX=0.4947917362054189;entryY=0.012121258359966856;" edge="1" parent="1" source="11" target="14">
          <mxGeometry relative="1" as="geometry">
            <Array as="points">
              <mxPoint x="1457" y="58" />
            </Array>
          </mxGeometry>
        </mxCell>
        <mxCell id="41" value="" style="curved=1;startArrow=none;endArrow=block;exitX=0.9987500429153442;exitY=0.6564307242309967;entryX=0.5062501629193624;entryY=0.012121258359966856;" edge="1" parent="1" source="11" target="15">
          <mxGeometry relative="1" as="geometry">
            <Array as="points">
              <mxPoint x="1578" y="58" />
            </Array>
          </mxGeometry>
        </mxCell>
        <mxCell id="42" value="" style="curved=1;startArrow=none;endArrow=block;exitX=0.9987500429153442;exitY=0.6224750673240479;entryX=0.5020834803581238;entryY=0.012121258359966856;" edge="1" parent="1" source="11" target="16">
          <mxGeometry relative="1" as="geometry">
            <Array as="points">
              <mxPoint x="1676" y="58" />
            </Array>
          </mxGeometry>
        </mxCell>
        <mxCell id="43" value="" style="curved=1;startArrow=none;endArrow=block;exitX=0.9987500429153442;exitY=0.6009582260152958;entryX=0.4959185269414162;entryY=0.012121258359966856;" edge="1" parent="1" source="11" target="17">
          <mxGeometry relative="1" as="geometry">
            <Array as="points">
              <mxPoint x="1774" y="58" />
            </Array>
          </mxGeometry>
        </mxCell>
        <mxCell id="44" value="" style="curved=1;startArrow=none;endArrow=block;exitX=0.9987500429153442;exitY=0.5841692164600745;entryX=0.4937501311302185;entryY=0.012121258359966856;" edge="1" parent="1" source="11" target="18">
          <mxGeometry relative="1" as="geometry">
            <Array as="points">
              <mxPoint x="1889" y="58" />
            </Array>
          </mxGeometry>
        </mxCell>
        <mxCell id="45" value="" style="curved=1;startArrow=none;endArrow=block;exitX=0.9987500429153442;exitY=0.568222006133222;entryX=0.5039736198273715;entryY=0.012121258359966856;" edge="1" parent="1" source="11" target="19">
          <mxGeometry relative="1" as="geometry">
            <Array as="points">
              <mxPoint x="2054" y="58" />
            </Array>
          </mxGeometry>
        </mxCell>
        <mxCell id="46" value="" style="curved=1;startArrow=none;endArrow=block;exitX=0.9987500429153442;exitY=0.5550637611103081;entryX=0.4994311695513518;entryY=0.012121258359966856;" edge="1" parent="1" source="11" target="20">
          <mxGeometry relative="1" as="geometry">
            <Array as="points">
              <mxPoint x="2272" y="58" />
            </Array>
          </mxGeometry>
        </mxCell>
        <mxCell id="47" value="" style="curved=1;startArrow=none;endArrow=block;exitX=0.9987500429153442;exitY=0.5468894214353914;entryX=0.4991457089781761;entryY=0.012121258359966856;" edge="1" parent="1" source="11" target="21">
          <mxGeometry relative="1" as="geometry">
            <Array as="points">
              <mxPoint x="2478" y="58" />
            </Array>
          </mxGeometry>
        </mxCell>
      </root>
    </mxGraphModel>
  </diagram>
</mxfile>
